<?xml version="1.0" standalone="no"?>
<!DOCTYPE svg PUBLIC "-//W3C//DTD SVG 20010904//EN"
 "http://www.w3.org/TR/2001/REC-SVG-20010904/DTD/svg10.dtd">
<svg version="1.0" xmlns="http://www.w3.org/2000/svg"
 width="32.000000pt" height="32.000000pt" viewBox="0 0 32.000000 32.000000"
 preserveAspectRatio="xMidYMid meet">

<g transform="translate(0.000000,32.000000) scale(0.100000,-0.100000)"
fill="#000000" stroke="none">
<path d="M0 160 l0 -160 78 1 c54 1 68 3 47 8 -79 19 -115 66 -115 151 0 95
55 150 150 150 95 0 150 -55 150 -150 0 -85 -36 -132 -115 -151 -21 -5 -7 -7
48 -8 l77 -1 0 160 0 160 -160 0 -160 0 0 -160z"/>
</g>
</svg>
